<?xml version="1.0" encoding="UTF-8" standalone="no"?>
<svg
   xmlns:dc="http://purl.org/dc/elements/1.1/"
   xmlns:cc="http://creativecommons.org/ns#"
   xmlns:rdf="http://www.w3.org/1999/02/22-rdf-syntax-ns#"
   xmlns:svg="http://www.w3.org/2000/svg"
   xmlns="http://www.w3.org/2000/svg"
   xmlns:xlink="http://www.w3.org/1999/xlink"
   xmlns:sodipodi="http://sodipodi.sourceforge.net/DTD/sodipodi-0.dtd"
   xmlns:inkscape="http://www.inkscape.org/namespaces/inkscape"
   id="svg1923"
   width="955.06866"
   height="955.06866"
   version="1.1"
   sodipodi:docname="awesome_chip_gradient.svg"
   inkscape:version="0.92.3 (2405546, 2018-03-11)">
  <metadata
     id="metadata3799">
    <rdf:RDF>
      <cc:Work
         rdf:about="">
        <dc:format>image/svg+xml</dc:format>
        <dc:type
           rdf:resource="http://purl.org/dc/dcmitype/StillImage" />
        <dc:title></dc:title>
      </cc:Work>
    </rdf:RDF>
  </metadata>
  <defs
     id="defs3797">
    <linearGradient
       inkscape:collect="always"
       id="linearGradient838">
      <stop
         style="stop-color:#000000;stop-opacity:1;"
         offset="0"
         id="stop834" />
      <stop
         style="stop-color:#000000;stop-opacity:0;"
         offset="1"
         id="stop836" />
    </linearGradient>
    <linearGradient
       inkscape:collect="always"
       xlink:href="#linearGradient838"
       id="linearGradient840"
       x1="603.74915"
       y1="609.38757"
       x2="-58.119514"
       y2="12.578115"
       gradientUnits="userSpaceOnUse" />
  </defs>
  <sodipodi:namedview
     pagecolor="#ffffff"
     bordercolor="#666666"
     borderopacity="1"
     objecttolerance="10"
     gridtolerance="10"
     guidetolerance="10"
     inkscape:pageopacity="0"
     inkscape:pageshadow="2"
     inkscape:window-width="1920"
     inkscape:window-height="1055"
     id="namedview3795"
     showgrid="false"
     inkscape:zoom="0.20378759"
     inkscape:cx="612.83916"
     inkscape:cy="283.79062"
     inkscape:window-x="0"
     inkscape:window-y="0"
     inkscape:window-maximized="1"
     inkscape:current-layer="svg1923" />
  <circle
     cy="477.53433"
     cx="477.53433"
     id="circle3776"
     r="477.53433"
     style="stroke-width:1.30295861;fill-opacity:1;fill:url(#linearGradient840)" />
  <circle
     cy="477.53433"
     cx="477.53433"
     r="336.5"
     id="circle3778"
     style="fill:#fede58" />
  <path
     d="m 436.03433,776.03433 c -121,-21 -194,-115 -212,-233 v -8 l -25,-1 -1,-18 h 481 c 6,13 10,27 13,41 13,94 -38,146 -114,193 -45,23 -93,29 -142,26 z"
     id="path3780"
     inkscape:connector-curvature="0" />
  <path
     d="m 483.03433,758.03433 c 52,-6 98,-28 138,-62 28,-25 46,-56 51,-87 4,-20 1,-57 -5,-70 l -423,-1 c -2,56 39,118 74,157 31,34 72,54 116,63 11,2 38,2 49,0 z"
     id="path3782"
     inkscape:connector-curvature="0"
     style="fill:#871945" />
  <path
     d="m 187.03433,453.03433 c -13,-26 -13,-57 -9,-85 6,-27 18,-52 35,-68 21,-20 50,-23 77,-18 15,4 28,12 39,23 18,17 30,40 36,67 4,20 4,41 0,60 l -6,21 z"
     id="path3784"
     inkscape:connector-curvature="0" />
  <path
     d="m 345.03433,434.03433 c 5,-6 6,-40 2,-58 -3,-16 -4,-16 -10,-10 -14,14 -38,14 -52,0 -15,-18 -12,-41 6,-55 3,-3 5,-5 5,-6 -1,-4 -22,-8 -34,-7 -42,4 -57.6,40 -66.2,77 -3,17 -1,53 4,59 z"
     id="path3786"
     inkscape:connector-curvature="0"
     style="fill:#ffffff" />
  <path
     d="m 489.03433,454.03433 c -2,-3 -6,-20 -7,-29 -5,-28 -1,-57 11,-83 15,-30 41,-52 72,-60 29,-7 57,0 82,15 26,17 45,49 50,82 2,12 2,33 0,45 -1,10 -5,26 -8,30 z"
     id="path3788"
     inkscape:connector-curvature="0" />
  <path
     d="m 676.03433,435.03433 c 4,-5 5,-34 4,-50 -2,-14 -6,-24 -8,-24 -1,0 -3,2 -6,5 -17,17 -47,13 -58,-9 -7,-16 -4,-31 8,-43 4,-4 7,-8 7,-9 0,0 -4,-2 -8,-3 -51,-17 -105,20 -115,80 -3,15 0,43 3,53 z"
     id="path3790"
     inkscape:connector-curvature="0"
     style="fill:#ffffff" />
  <path
     d="m 615.03433,701.03433 c 0,0 -46,40 -105,53 -66,15 -114,-7 -114,-7 0,0 14,-76 93,-95 76,-18 126,49 126,49 z"
     id="path3792"
     inkscape:connector-curvature="0"
     style="fill:#f9bedd" />
  <path
     style="fill:#edc900;fill-opacity:1;stroke:#fede58;stroke-width:1.5628413px;stroke-linecap:butt;stroke-linejoin:miter;stroke-opacity:1"
     d="m 397.25716,8.679845 39.06189,80.642979 c 0,0 76.14927,-13.275493 144.61353,10.506461 l 49.352,-72.741095 c 0,0 -88.0839,-46.174875 -233.02742,-18.408345 z"
     id="path4755"
     inkscape:connector-curvature="0" />
  <path
     inkscape:connector-curvature="0"
     id="path4757"
     d="m 542.9838,948.07177 -36.55353,-81.81052 c 0,0 -76.52284,10.91816 -144.22022,-14.96619 l -51.57425,71.18275 c 0,0 86.61632,48.87233 232.348,25.59396 z"
     style="fill:#f5ac00;fill-opacity:1;stroke:#fede58;stroke-width:1.5628413px;stroke-linecap:butt;stroke-linejoin:miter;stroke-opacity:1" />
  <path
     style="fill:#edd300;fill-opacity:1;stroke:#fede58;stroke-width:1.5628413px;stroke-linecap:butt;stroke-linejoin:miter;stroke-opacity:1"
     d="m 38.646728,288.25689 88.717842,12.58035 c 0,0 31.47214,-70.60067 89.40884,-114.14694 l -32.82816,-81.54261 c 0,0 -87.466863,47.33327 -145.298522,183.1092 z"
     id="path4759"
     inkscape:connector-curvature="0" />
  <path
     inkscape:connector-curvature="0"
     id="path4761"
     d="m 94.627605,763.28814 55.253825,-70.54173 c 0,0 -45.40591,-62.55601 -54.149729,-134.5038 L 8.6996495,545.90132 c 0,0 -2.7416197,99.41517 85.9279555,217.38682 z"
     style="fill:#edb600;fill-opacity:1;stroke:#fede58;stroke-width:1.5628413px;stroke-linecap:butt;stroke-linejoin:miter;stroke-opacity:1" />
  <path
     style="fill:#f59700;fill-opacity:1;stroke:#fede58;stroke-width:1.5628413px;stroke-linecap:butt;stroke-linejoin:miter;stroke-opacity:1"
     d="m 924.86352,645.59986 -89.22158,-8.28435 c 0,0 -28.02841,72.03721 -83.79616,118.32865 l 36.725,79.86338 c 0,0 85.08075,-51.49911 136.29274,-189.90768 z"
     id="path4763"
     inkscape:connector-curvature="0" />
  <path
     inkscape:connector-curvature="0"
     id="path4765"
     d="m 845.53629,175.25037 -50.37168,74.10678 c 0,0 49.52052,59.35206 63.09563,130.54656 l 87.66611,6.44491 c 0,0 -3.96784,-99.37377 -100.39006,-211.09825 z"
     style="fill:#f5ac00;fill-opacity:1;stroke:#fede58;stroke-width:1.5628413px;stroke-linecap:butt;stroke-linejoin:miter;stroke-opacity:1" />
  <ellipse
     style="opacity:1;fill:none;fill-opacity:1;stroke:#040404;stroke-width:13.75764942;stroke-miterlimit:4;stroke-dasharray:none;stroke-opacity:1"
     id="path848"
     cx="475.36569"
     cy="477.10062"
     rx="332.61731"
     ry="333.48477" />
</svg>
